HIERARCHY
ROOT Hips
{
  OFFSET 23.1697 37.4474 20.9601
  CHANNELS 6 Xposition Yposition Zposition Zrotation Xrotation Yrotation
  JOINT LeftHip
  {
    OFFSET 3.43 0 0
    CHANNELS 3 Zrotation Xrotation Yrotation
    JOINT LeftKnee
    {
      OFFSET 0 -18.47 0
      CHANNELS 3 Zrotation Xrotation Yrotation
      JOINT LeftAnkle
      {
        OFFSET 0 -17.95 0
        CHANNELS 3 Zrotation Xrotation Yrotation
        End Site
        {
          OFFSET 0 -3.12 0
        }
      }
    }
  }
  JOINT RightHip
  {
    OFFSET -3.43 0 0
    CHANNELS 3 Zrotation Xrotation Yrotation
    JOINT RightKnee
    {
      OFFSET 0 -18.47 0
      CHANNELS 3 Zrotation Xrotation Yrotation
      JOINT RightAnkle
      {
        OFFSET 0 -17.95 0
        CHANNELS 3 Zrotation Xrotation Yrotation
        End Site
        {
          OFFSET 0 -3.12 0
        }
      }
    }
  }
  JOINT Chest
  {
    OFFSET 0 4.57 0
    CHANNELS 3 Zrotation Xrotation Yrotation
    JOINT CS_BVH
    {
      OFFSET 0 6.57 0
      CHANNELS 3 Zrotation Xrotation Yrotation
      JOINT LeftCollar
      {
        OFFSET 1.06 4.19 1.76
        CHANNELS 3 Zrotation Xrotation Yrotation
        JOINT LeftShoulder
        {
          OFFSET 5.81 0 0
          CHANNELS 3 Zrotation Xrotation Yrotation
          JOINT LeftElbow
          {
            OFFSET 0 -12.08 0
            CHANNELS 3 Zrotation Xrotation Yrotation
            JOINT LeftWrist
            {
              OFFSET 0 -9.82 0
              CHANNELS 3 Zrotation Xrotation Yrotation
              End Site
              {
                OFFSET 0 -7.37 0
              }
            }
          }
        }
      }
      JOINT RightCollar
      {
        OFFSET -1.06 4.19 1.76
        CHANNELS 3 Zrotation Xrotation Yrotation
        JOINT RightShoulder
        {
          OFFSET -6.06 0 0
          CHANNELS 3 Zrotation Xrotation Yrotation
          JOINT RightElbow
          {
            OFFSET 0 -11.08 0
            CHANNELS 3 Zrotation Xrotation Yrotation
            JOINT RightWrist
            {
              OFFSET 0 -9.82 0
              CHANNELS 3 Zrotation Xrotation Yrotation
              End Site
              {
                OFFSET 0 -7.14001 0
              }
            }
          }
        }
      }
      JOINT Neck
      {
        OFFSET 0 4.05 0
        CHANNELS 3 Zrotation Xrotation Yrotation
        JOINT Head
        {
          OFFSET 0 5.19 0
          CHANNELS 3 Zrotation Xrotation Yrotation
          End Site
          {
            OFFSET 0 4.14001 0
          }
        }
      }
    }
  }
}
MOTION
Frames:	9
Frame Time:	0.0333333
15.3833 32.7651 -30.2678 1.08391 19.4593 -43.4827 16.4826 -37.5733 17.8784 179.145 80.1741 -179.422 -0.959526 -29.6746 5.17088 5.66953 -42.5767 -1.70443 0.571574 86.4458 -0.594936 0.213067 -35.5524 -5.46539 7.59938 14.8565 -3.52653 6.10925 -5.35282 -0.425977 10 -5.92999e-014 1.09083e-014 27.7642 -12.1752 26.4191 12.9904 -20.6708 3.9995 -0.0925705 -0.988352 -13.2864 -10 -5.80203e-014 -8.98879e-015 -12.4876 -12.3247 15.5722 -31.5598 -39.6417 -16.1026 0.185089 1.57672 -15.9 -11.6309 -13.9281 -1.87107 23.9832 34.1726 -8.10976 
14.5512 32.8951 -28.6741 -0.129609 20.8968 -41.961 23.8887 -46.5285 24.9138 179.353 75.9938 -179.56 -2.2446 -28.2831 2.08687 5.81611 -37.0851 -3.35228 0.241342 82.0791 -0.0547958 -0.157424 -38.3452 -5.44622 9.50311 14.4091 -1.41874 5.30284 -5.21739 0.092157 10 -5.92999e-014 1.09083e-014 32.7361 -10.3563 27.2523 13.3262 -21.1349 4.15618 -0.0836285 -0.962877 -12.9389 -10 -5.80203e-014 -8.98879e-015 -14.5622 -14.8736 16.0622 -36.9743 -43.2761 -20.1572 0.169327 1.51503 -15.264 -12.0714 -13.8694 -3.21973 26.543 33.1406 -11.3351 
13.5021 33.451 -26.709 -2.30694 22.1665 -40.1371 33.4535 -53.532 33.5448 179.287 77.3465 -179.49 -2.80829 -29.0298 0.481605 8.06917 -28.9668 -2.75691 0.104772 74.0373 0.457642 -1.66445 -38.3925 -8.16209 11.4937 14.258 0.686713 5.45643 -5.82303 0.679984 10 -5.92999e-014 1.09083e-014 35.0231 -6.6633 27.2199 15.2401 -23.7 5.09136 -0.0507796 -0.777822 -10.4266 -10 -5.80203e-014 -8.98879e-015 -17.1809 -16.3162 16.3141 -44.4668 -47.2353 -26.0505 0.152158 1.44433 -14.5374 -12.5462 -13.7528 -4.52708 28.4362 33.3726 -14.6137 
12.318 34.4221 -24.2866 -4.883 23.0032 -38.0418 41.0548 -58.4204 39.6248 178.695 83.9865 -178.918 -2.89828 -29.2207 0.305785 9.93033 -20.0042 -2.22823 0.0551132 64.4339 0.959085 -1.48595 -33.4869 -9.31072 13.3188 13.86 2.22461 6.03132 -6.61269 1.13993 10 -5.92999e-014 1.09083e-014 37.799 -3.13217 27.4842 15.733 -24.3383 5.34329 -0.0289997 -0.620643 -8.30669 -10 -5.80203e-014 -8.98879e-015 -20.0008 -16.7262 17.6267 -53.4747 -50.6863 -33.4403 0.158936 1.47271 -14.8288 -13.8691 -15.4264 -6.53134 33.4001 36.586 -20.7541 
11.1127 35.7397 -21.3733 -7.81693 23.1489 -35.8614 43.974 -60.7626 40.5322 1.16006 84.8055 -1.34334 -3.12557 -28.1814 -0.079851 9.56442 -11.651 -3.23152 0.0340234 55.1844 1.31915 1.95524 -21.4302 -3.23507 15.6576 13.0856 3.65923 6.12886 -6.58362 1.55239 10 -5.92999e-014 1.09083e-014 39.0363 0.690326 27.4663 17.2413 -26.2351 6.1415 -0.00307081 -0.30704 -4.10234 -10 -5.80203e-014 -8.98879e-015 -22.9168 -16.8321 17.407 -60.2075 -52.5222 -39.1111 0.133201 1.36362 -13.7106 -14.488 -10.4993 -6.72832 35.0307 32.5248 -21.6857 
10.0055 36.8437 -18.1439 -10.0674 22.0666 -34.7157 42.4019 -60.3309 37.9245 0.227023 71.5553 -0.19157 -3.06727 -26.2045 0.533082 6.40386 -4.63757 -5.10763 0.0228928 46.3667 1.21388 2.65584 1.79619 1.02703 17.4237 11.7148 4.27694 6.16187 -4.80416 1.65364 10 -5.92999e-014 1.09083e-014 39.4152 4.652 30.5031 18.2164 -27.416 6.67802 -0.00149174 -0.0885377 -1.18279 -10 -5.80203e-014 -8.98879e-015 -26.7749 -17.5483 18.3355 -64.0301 -53.3256 -42.3702 0.139753 1.39064 -13.9872 -15.7352 -8.56134 -7.18838 36.5927 32.9789 -23.7763 
8.89526 37.5589 -14.8596 -12.1542 19.8733 -33.9548 38.695 -58.0375 32.3644 0.0821153 58.1786 0.27526 -3.29049 -22.2159 0.470798 3.73815 3.95214 -2.48855 0.0188652 41.4124 0.957294 2.48562 10.6949 0.787024 18.1228 10.8584 6.17043 5.38707 -2.27003 2.04775 10 -5.92999e-014 1.09083e-014 42.4339 5.91837 33.2584 17.9994 -27.1562 6.55725 -0.00486856 -0.119012 -1.58985 -10 -5.80203e-014 -8.98879e-015 -29.5077 -17.6247 15.7769 -63.3038 -53.1853 -41.7491 0.0960065 1.17853 -11.8244 -15.8367 -8.08701 -8.52791 38.5159 33.9259 -27.8221 
7.85879 37.6981 -11.6869 -13.8917 16.6445 -32.9607 31.7418 -54.9669 21.0706 0.0377484 47.7313 0.847857 -1.64389 -23.2048 6.73301 -0.216929 10.6621 0.2513 0.0237648 44.3029 0.569405 4.09679 10.7251 -4.73738 17.4243 10.4182 4.16834 7.72847 -3.7433 1.52724 10 -5.92999e-014 1.09083e-014 43.6774 14.0245 29.0348 19.3704 -28.7679 7.33288 0.00132583 -0.0811319 -1.08387 -10 -5.80203e-014 -8.98879e-015 -32.0905 -14.9304 18.4233 -61.721 -52.8597 -40.3986 0.0829783 1.10615 -11.0901 -17.3211 -4.76134 -7.80482 38.2784 37.2059 -28.7237 
6.88028 36.9931 -8.50797 -16.0007 13.322 -31.6569 28.0898 -52.3247 14.6543 0.0292185 44.5379 1.46795 0.262608 -23.3669 13.9787 -4.37478 14.3939 4.41576 0.0376679 52.8618 0.3584 5.63394 12.4917 -9.4718 17.8765 9.84304 4.63707 6.1707 -2.23697 1.40007 10 -5.92999e-014 1.09083e-014 47.4496 13.9861 27.835 20.5475 -30.0967 8.02178 -0.00979385 -0.420711 -5.62342 -10 -5.80203e-014 -8.98879e-015 -31.238 -11.2701 14.4962 -57.7924 -51.9285 -37.0654 0.0702011 1.02937 -10.313 -16.3374 -3.8722 -8.57645 38.9503 38.5285 -31.7114 
